<svg viewBox="0 0 256 256" xmlns="http://www.w3.org/2000/svg"><path fill="none" d="M0 0h256v256H0z"></path><path fill="none" stroke="#ffffff" stroke-linecap="round" stroke-linejoin="round" stroke-width="12" d="M80 136h96M48 96V72a32 32 0 0 1 32-32h96a32 32 0 0 1 32 32v24" class="stroke-000000"></path><path d="M80 168v-40a32 32 0 1 0-32 32h0v40a8 8 0 0 0 8 8h144a8 8 0 0 0 8-8v-40h0a32 32 0 1 0-32-32v40" fill="none" stroke="#ffffff" stroke-linecap="round" stroke-linejoin="round" stroke-width="12" class="stroke-000000"></path></svg>