<svg viewBox="0 0 32 32" xml:space="preserve" xmlns="http://www.w3.org/2000/svg" enable-background="new 0 0 32 32"><path d="M2 14.35h10.85c.83 0 1.5-.67 1.5-1.5V2c0-.83-.67-1.5-1.5-1.5H2C1.17.5.5 1.17.5 2v10.85c0 .83.67 1.5 1.5 1.5zM30 .5H19.15c-.83 0-1.5.67-1.5 1.5v10.85c0 .83.67 1.5 1.5 1.5H30c.83 0 1.5-.67 1.5-1.5V2c0-.83-.67-1.5-1.5-1.5zM2 31.5h10.85c.83 0 1.5-.67 1.5-1.5V19.15c0-.83-.67-1.5-1.5-1.5H2c-.83 0-1.5.67-1.5 1.5V30c0 .83.67 1.5 1.5 1.5zM30 23.073h-3.927v-3.928a1.5 1.5 0 1 0-3 0v3.928h-3.928a1.5 1.5 0 1 0 0 3h3.928V30a1.5 1.5 0 1 0 3 0v-3.927H30a1.5 1.5 0 1 0 0-3z" fill="#ffffff" class="fill-000000"></path></svg>