<svg width="24" height="24" viewBox="0 0 24 16" fill="none" xmlns="http://www.w3.org/2000/svg">
<g id="Group">
<path id="Vector" d="M12.0001 11.6968C14.0407 11.6968 15.6949 10.0426 15.6949 8.00197C15.6949 5.96137 14.0407 4.30713 12.0001 4.30713C9.95948 4.30713 8.30524 5.96137 8.30524 8.00197C8.30524 10.0426 9.95948 11.6968 12.0001 11.6968Z" fill="#98A0B1"/>
<path id="Vector_2" d="M23.6319 6.97862C20.7918 3.54657 16.4926 0.24292 12.0001 0.24292C7.50668 0.24292 3.20649 3.54888 0.368245 6.97862C-0.122708 7.57164 -0.122708 8.43254 0.368245 9.02557C1.08181 9.88785 2.57776 11.5524 4.57575 13.0068C9.60762 16.6698 14.3815 16.6779 19.4244 13.0068C21.4224 11.5524 22.9183 9.88785 23.6319 9.02557C24.1214 8.4337 24.124 7.57358 23.6319 6.97862ZM12.0001 2.82931C14.8525 2.82931 17.1729 5.14967 17.1729 8.00209C17.1729 10.8545 14.8525 13.1749 12.0001 13.1749C9.14766 13.1749 6.82729 10.8545 6.82729 8.00209C6.82729 5.14967 9.14766 2.82931 12.0001 2.82931Z" fill="#98A0B1"/>
</g>
</svg>
