<svg width="24" height="24" viewBox="0 0 24 24" fill="none" xmlns="http://www.w3.org/2000/svg">
<g id="Group">
<path id="Vector" d="M20.4465 7.95124C20.1924 7.73279 19.9331 7.52039 19.6689 7.31421L16.6361 10.3471C16.8256 10.8775 16.9223 11.4367 16.9219 12C16.9219 14.7139 14.7139 16.9219 12 16.9219C11.4367 16.9223 10.8775 16.8256 10.347 16.6361L8.07089 18.9122C9.40008 19.4575 10.7184 19.7344 12 19.7344C13.5308 19.7344 15.114 19.3408 16.7055 18.5646C17.9553 17.955 19.214 17.1086 20.4465 16.0488C22.5304 14.257 23.8141 12.4852 23.8677 12.4106C23.9537 12.291 24 12.1474 24 12C24 11.8527 23.9537 11.709 23.8677 11.5894C23.814 11.5149 22.5304 9.74308 20.4465 7.95124Z" fill="#181414"/>
<path id="Vector_2" d="M12 15.5156C13.9385 15.5156 15.5156 13.9385 15.5156 11.9999C15.5156 11.8313 15.503 11.6655 15.4799 11.5032L11.5032 15.4798C11.6656 15.5029 11.8313 15.5156 12 15.5156ZM23.7941 0.20591C23.5195 -0.0686367 23.0743 -0.0686367 22.7997 0.20591L17.2756 5.73003C17.0878 5.62757 16.8977 5.52932 16.7055 5.43538C15.114 4.65913 13.5308 4.26557 12 4.26557C10.4692 4.26557 8.886 4.65913 7.2945 5.43533C6.04472 6.04494 4.78603 6.89141 3.55345 7.95116C1.46967 9.743 0.185954 11.5148 0.132329 11.5894C0.04627 11.709 -3.05176e-05 11.8526 -3.05176e-05 11.9999C-3.05176e-05 12.1473 0.04627 12.2909 0.132329 12.4105C0.185954 12.4851 1.46963 14.2569 3.55345 16.0487C4.19203 16.5978 4.83764 17.089 5.48536 17.5202L0.20597 22.7997C-0.068624 23.0742 -0.068624 23.5194 0.20597 23.794C0.343267 23.9313 0.523173 23.9999 0.703126 23.9999C0.883079 23.9999 1.06303 23.9313 1.20028 23.794L23.794 1.20022C24.0687 0.925676 24.0687 0.480457 23.7941 0.20591ZM7.07813 11.9999C7.07813 9.28602 9.28608 7.07807 12 7.07807C13.104 7.07807 14.1241 7.44341 14.9461 8.05954L13.9373 9.06828C13.3815 8.69966 12.7155 8.48432 12 8.48432C10.0615 8.48432 8.48438 10.0614 8.48438 11.9999C8.48438 12.7154 8.69972 13.3813 9.06834 13.9373L8.0596 14.946C7.44347 14.1241 7.07813 13.1039 7.07813 11.9999Z" fill="#181414"/>
</g>
</svg>
